HIERARCHY
ROOT hip
{
  OFFSET 44.954 85.9898 349.588
  CHANNELS 6 Xposition Yposition Zposition Zrotation Xrotation Yrotation
  JOINT abdomen
  {
    OFFSET 0 20.6881 -0.73152
    CHANNELS 3 Zrotation Xrotation Yrotation
    JOINT chest
    {
      OFFSET 0 11.7043 -0.48768
      CHANNELS 3 Zrotation Xrotation Yrotation
      JOINT neck
      {
        OFFSET 0 22.1894 -2.19456
        CHANNELS 3 Zrotation Xrotation Yrotation
        JOINT head
        {
          OFFSET -0.24384 7.07133 1.2192
          CHANNELS 3 Zrotation Xrotation Yrotation
          JOINT leftEye
          {
            OFFSET 4.14528 8.04674 8.04672
            CHANNELS 3 Zrotation Xrotation Yrotation
            End Site
            {
              OFFSET 1 0 0
            }
          }
          JOINT rightEye
          {
            OFFSET -3.6576 8.04674 8.04672
            CHANNELS 3 Zrotation Xrotation Yrotation
            End Site
            {
              OFFSET 1 0 0
            }
          }
        }
      }
      JOINT rCollar
      {
        OFFSET -2.68224 19.2634 -4.8768
        CHANNELS 3 Zrotation Xrotation Yrotation
        JOINT rShldr
        {
          OFFSET -8.77824 -1.95073 1.46304
          CHANNELS 3 Zrotation Xrotation Yrotation
          JOINT rForeArm
          {
            OFFSET -28.1742 -1.7115 0.48768
            CHANNELS 3 Zrotation Xrotation Yrotation
            JOINT rHand
            {
              OFFSET -22.5879 0.773209 7.07136
              CHANNELS 3 Zrotation Xrotation Yrotation
              JOINT rThumb1
              {
                OFFSET -1.2192 -0.487915 3.41376
                CHANNELS 3 Zrotation Xrotation Yrotation
                JOINT rThumb2
                {
                  OFFSET -3.37035 -0.52449 3.41376
                  CHANNELS 3 Zrotation Xrotation Yrotation
                  End Site
                  {
                    OFFSET -1.78271 -1.18214 1.43049
                  }
                }
              }
              JOINT rIndex1
              {
                OFFSET -7.75947 0.938293 5.60832
                CHANNELS 3 Zrotation Xrotation Yrotation
                JOINT rIndex2
                {
                  OFFSET -2.54057 -0.884171 1.56538
                  CHANNELS 3 Zrotation Xrotation Yrotation
                  End Site
                  {
                    OFFSET -1.62519 -0.234802 1.16502
                  }
                }
              }
              JOINT rMid1
              {
                OFFSET -8.24714 1.18213 3.41376
                CHANNELS 3 Zrotation Xrotation Yrotation
                JOINT rMid2
                {
                  OFFSET -3.10165 -0.590103 1.0647
                  CHANNELS 3 Zrotation Xrotation Yrotation
                  End Site
                  {
                    OFFSET -2.48547 -0.328903 0.83742
                  }
                }
              }
              JOINT rRing1
              {
                OFFSET -8.82822 0.546677 1.51678
                CHANNELS 3 Zrotation Xrotation Yrotation
                JOINT rRing2
                {
                  OFFSET -2.60934 -0.819778 -0.0198488
                  CHANNELS 3 Zrotation Xrotation Yrotation
                  End Site
                  {
                    OFFSET -2.33842 -0.294052 0.168128
                  }
                }
              }
              JOINT rPinky1
              {
                OFFSET -8.27202 -0.0477905 -0.4584
                CHANNELS 3 Zrotation Xrotation Yrotation
                JOINT rPinky2
                {
                  OFFSET -1.82734 -0.647385 -0.700984
                  CHANNELS 3 Zrotation Xrotation Yrotation
                  End Site
                  {
                    OFFSET -1.69225 -0.51767 -0.607171
                  }
                }
              }
            }
          }
        }
      }
      JOINT lCollar
      {
        OFFSET 2.68224 19.2634 -4.8768
        CHANNELS 3 Zrotation Xrotation Yrotation
        JOINT lShldr
        {
          OFFSET 8.77824 -1.95073 1.46304
          CHANNELS 3 Zrotation Xrotation Yrotation
          JOINT lForeArm
          {
            OFFSET 28.1742 -1.7115 0.48768
            CHANNELS 3 Zrotation Xrotation Yrotation
            JOINT lHand
            {
              OFFSET 22.5879 0.773209 7.07136
              CHANNELS 3 Zrotation Xrotation Yrotation
              JOINT lThumb1
              {
                OFFSET 1.2192 -0.487915 3.41376
                CHANNELS 3 Zrotation Xrotation Yrotation
                JOINT lThumb2
                {
                  OFFSET 3.37035 -0.52449 3.41376
                  CHANNELS 3 Zrotation Xrotation Yrotation
                  End Site
                  {
                    OFFSET 1.78271 -1.18214 1.43049
                  }
                }
              }
              JOINT lIndex1
              {
                OFFSET 7.75947 0.938293 5.60832
                CHANNELS 3 Zrotation Xrotation Yrotation
                JOINT lIndex2
                {
                  OFFSET 2.54057 -0.884171 1.56538
                  CHANNELS 3 Zrotation Xrotation Yrotation
                  End Site
                  {
                    OFFSET 1.62519 -0.234802 1.16502
                  }
                }
              }
              JOINT lMid1
              {
                OFFSET 8.24714 1.18213 3.41376
                CHANNELS 3 Zrotation Xrotation Yrotation
                JOINT lMid2
                {
                  OFFSET 3.10165 -0.590103 1.0647
                  CHANNELS 3 Zrotation Xrotation Yrotation
                  End Site
                  {
                    OFFSET 2.48547 -0.328903 0.83742
                  }
                }
              }
              JOINT lRing1
              {
                OFFSET 8.82822 0.546677 1.51678
                CHANNELS 3 Zrotation Xrotation Yrotation
                JOINT lRing2
                {
                  OFFSET 2.60934 -0.819778 -0.0198488
                  CHANNELS 3 Zrotation Xrotation Yrotation
                  End Site
                  {
                    OFFSET 2.33842 -0.294052 0.168128
                  }
                }
              }
              JOINT lPinky1
              {
                OFFSET 8.27202 -0.0477905 -0.4584
                CHANNELS 3 Zrotation Xrotation Yrotation
                JOINT lPinky2
                {
                  OFFSET 1.82734 -0.647385 -0.700984
                  CHANNELS 3 Zrotation Xrotation Yrotation
                  End Site
                  {
                    OFFSET 1.69225 -0.51767 -0.607171
                  }
                }
              }
            }
          }
        }
      }
    }
  }
  JOINT rButtock
  {
    OFFSET -8.77824 4.35084 1.2192
    CHANNELS 3 Zrotation Xrotation Yrotation
    JOINT rThigh
    {
      OFFSET 0 -1.70687 -2.19456
      CHANNELS 3 Zrotation Xrotation Yrotation
      JOINT rShin
      {
        OFFSET 0 -36.8199 0.73152
        CHANNELS 3 Zrotation Xrotation Yrotation
        JOINT rFoot
        {
          OFFSET 0.73152 -45.1104 -5.12064
          CHANNELS 3 Zrotation Xrotation Yrotation
          End Site
          {
            OFFSET -1.1221 -3.69964 12.103
          }
        }
      }
    }
  }
  JOINT lButtock
  {
    OFFSET 8.77824 4.35084 1.2192
    CHANNELS 3 Zrotation Xrotation Yrotation
    JOINT lThigh
    {
      OFFSET 0 -1.70687 -2.19456
      CHANNELS 3 Zrotation Xrotation Yrotation
      JOINT lShin
      {
        OFFSET 0 -36.8199 0.73152
        CHANNELS 3 Zrotation Xrotation Yrotation
        JOINT lFoot
        {
          OFFSET -0.73152 -45.1104 -5.12064
          CHANNELS 3 Zrotation Xrotation Yrotation
          End Site
          {
            OFFSET 1.1221 -3.69964 12.103
          }
        }
      }
    }
  }
}
MOTION
Frames:	4
Frame Time:	0.00833333
30.7702 75.7411 89.0013 -14.1777 1.54095 73.3487 -4.71947 22.7003 -8.91864 3.83884 -9.01364 -2.32979 -4.03754 -3.62219 -9.05369 17.4283 6.13838 -17.0661 -0 0 0 -0 0 0 -9.53278e-014 2.07787e-013 1.5617e-014 80.5888 39.056 -3.65333 -25.4258 -22.0415 54.5023 -0.476058 -19.2304 -2.81003 2.10012e-010 2.14638e-009 -2.10102e-009 3.9416e-010 3.70543e-009 -3.62618e-009 2.10021e-010 2.14638e-009 -2.10103e-009 7.73091 5.47488 0.417314 2.10006e-010 2.14637e-009 -2.10101e-009 2.90554 0.965183 0.102902 2.1002e-010 2.14638e-009 -2.10102e-009 10.2786 0.731801 0.0259123 2.10008e-010 2.14638e-009 -2.10102e-009 2.22167 -0.733487 -0.20892 -9.53025e-014 2.07791e-013 1.53674e-014 -39.0712 49.1084 -35.9409 24.812 -20.6981 -52.2943 1.23861 -29.9029 4.63593 -2.00497e-011 2.89153e-010 -2.86508e-010 -2.92272e-011 5.07032e-010 -4.97592e-010 -2.00528e-011 2.8915e-010 -2.86488e-010 -7.73091 5.47488 -0.417314 -2.00477e-011 2.89152e-010 -2.86509e-010 -2.90554 0.965183 -0.102902 -2.00499e-011 2.8915e-010 -2.8651e-010 -10.2786 0.731801 -0.0259123 -2.00414e-011 2.89153e-010 -2.86518e-010 -2.22167 -0.733487 0.20892 -2.03217e-016 0 -3.88251e-019 2.32874 -51.2139 4.83358 -1.29202 62.8354 1.6559 6.23173 -18.9837 14.2716 2.03217e-016 0 3.88251e-019 11.5386 -47.3282 -3.21232 1.46892 67.3689 -2.6914 2.29037 -38.2644 4.62476 
30.5003 75.0788 90.4195 -14.544 1.53749 73.5246 -4.52446 22.937 -8.78388 3.87631 -9.06978 -2.27339 -4.21014 -3.63196 -9.21397 17.6848 5.70734 -17.2886 -0 0 0 -0 0 0 -1.51505e-013 3.8564e-013 1.05058e-013 80.1462 39.2093 -3.22193 -25.4589 -22.118 54.6271 -0.466691 -19.0475 -2.78122 4.50545e-010 9.31459e-010 -1.46809e-009 7.96585e-010 1.59896e-009 -2.52712e-009 4.50554e-010 9.31454e-010 -1.46809e-009 7.73091 5.47488 0.417314 4.50539e-010 9.31445e-010 -1.46807e-009 2.90554 0.965183 0.102902 4.50553e-010 9.31456e-010 -1.46809e-009 10.2786 0.731801 0.0259123 4.50541e-010 9.31458e-010 -1.46808e-009 2.22167 -0.733487 -0.20892 -1.51453e-013 3.85645e-013 1.04809e-013 -38.6018 48.7249 -36.2079 24.9067 -20.8973 -52.6208 1.23599 -29.8748 4.63066 -5.25326e-010 1.26149e-009 -1.57751e-009 -8.68747e-010 2.23999e-009 -2.74212e-009 -5.25329e-010 1.26148e-009 -1.57749e-009 -7.73091 5.47488 -0.417314 -5.25324e-010 1.26148e-009 -1.57751e-009 -2.90554 0.965183 -0.102902 -5.25326e-010 1.26148e-009 -1.57751e-009 -10.2786 0.731801 -0.0259123 -5.25318e-010 1.26149e-009 -1.57752e-009 -2.22167 -0.733487 0.20892 -2.03217e-016 0 -3.88251e-019 2.02338 -52.6078 4.16872 -1.41526 64.274 1.76924 6.53827 -18.9054 15.0444 2.03217e-016 0 3.88251e-019 11.8338 -48.7517 -2.96504 1.63785 68.8135 -2.8579 1.93118 -38.549 4.08476 
30.23 74.378 91.8291 -14.8241 1.57122 73.6086 -4.47301 23.2503 -8.545 3.94883 -9.11128 -2.19327 -4.34519 -3.67666 -9.37348 17.884 5.2916 -17.5188 -0 0 0 -0 0 0 -1.14908e-013 3.52973e-013 1.72144e-013 79.6566 39.3616 -2.73612 -25.4948 -22.2014 54.7627 -0.46117 -18.9377 -2.76398 2.71555e-010 -6.97893e-010 -1.00548e-010 4.6589e-010 -1.21456e-009 -1.67755e-010 2.71563e-010 -6.97899e-010 -1.00543e-010 7.73091 5.47488 0.417314 2.7155e-010 -6.97906e-010 -1.0053e-010 2.90554 0.965183 0.102902 2.71564e-010 -6.97896e-010 -1.00543e-010 10.2786 0.731801 0.0259123 2.71552e-010 -6.97894e-010 -1.00538e-010 2.22167 -0.733487 -0.20892 -1.14854e-013 3.52976e-013 1.71897e-013 -38.1123 48.3312 -36.4539 25.011 -21.1199 -52.9855 1.23395 -29.853 4.62657 -9.22362e-010 1.69538e-009 -2.31793e-009 -1.53484e-009 3.02141e-009 -4.03119e-009 -9.22363e-010 1.69538e-009 -2.31791e-009 -7.73091 5.47488 -0.417314 -9.2236e-010 1.69538e-009 -2.31794e-009 -2.90554 0.965183 -0.102902 -9.22362e-010 1.69538e-009 -2.31793e-009 -10.2786 0.731801 -0.0259123 -9.22354e-010 1.69539e-009 -2.31794e-009 -2.22167 -0.733487 0.20892 -2.03217e-016 0 -3.88251e-019 1.68931 -54.0276 3.50575 -1.56362 65.8342 1.91492 6.77672 -18.8428 15.6323 2.03217e-016 0 3.88251e-019 12.1912 -50.0407 -2.61066 1.84168 70.2694 -3.03969 1.28285 -38.8337 3.12201 
29.9617 73.6509 93.2218 -15.0473 1.63548 73.6171 -4.5235 23.6119 -8.23218 4.04812 -9.14284 -2.09623 -4.46109 -3.74447 -9.53109 18.04 4.88413 -17.7486 -0 0 0 -0 0 0 -2.33765e-014 2.01183e-013 2.37843e-013 79.1116 39.5208 -2.19792 -25.5318 -22.2878 54.9032 -0.458089 -18.8761 -2.75431 -1.5937e-010 -2.75428e-009 1.83312e-009 -3.07207e-010 -4.76084e-009 3.16446e-009 -1.59361e-010 -2.75428e-009 1.83312e-009 7.73091 5.47488 0.417314 -1.59373e-010 -2.75429e-009 1.83313e-009 2.90554 0.965183 0.102902 -1.59359e-010 -2.75428e-009 1.83312e-009 10.2786 0.731801 0.0259123 -1.59371e-010 -2.75428e-009 1.83313e-009 2.22167 -0.733487 -0.20892 -2.33364e-014 2.01182e-013 2.37597e-013 -37.6319 47.9216 -36.6642 25.1224 -21.3614 -53.3852 1.23183 -29.8301 4.62229 -1.30618e-009 1.88385e-009 -2.84143e-009 -2.18324e-009 3.37092e-009 -4.94433e-009 -1.30618e-009 1.88385e-009 -2.84142e-009 -7.73091 5.47488 -0.417314 -1.30618e-009 1.88385e-009 -2.84144e-009 -2.90554 0.965183 -0.102902 -1.30618e-009 1.88385e-009 -2.84144e-009 -10.2786 0.731801 -0.0259123 -1.30617e-009 1.88385e-009 -2.84144e-009 -2.22167 -0.733487 0.20892 -2.03217e-016 0 -3.88251e-019 1.30761 -55.4879 2.8241 -1.74639 67.5116 2.09971 6.97568 -18.7352 16.1464 2.03217e-016 0 3.88251e-019 12.6027 -51.2464 -2.17204 2.08388 71.7481 -3.24636 0.424043 -39.1133 1.8598 
